<?xml version="1.0" standalone="no"?>
<!DOCTYPE svg PUBLIC "-//W3C//DTD SVG 20010904//EN"
 "http://www.w3.org/TR/2001/REC-SVG-20010904/DTD/svg10.dtd">
<svg version="1.0" xmlns="http://www.w3.org/2000/svg"
 width="236.000000pt" height="236.000000pt" viewBox="0 0 236.000000 236.000000"
 preserveAspectRatio="xMidYMid meet">
<metadata>
Created by potrace 1.11, written by Peter Selinger 2001-2013
</metadata>
<g transform="translate(0.000000,236.000000) scale(0.100000,-0.100000)"
fill="#000000" stroke="none">
<path d="M0 1180 l0 -1180 1180 0 1180 0 0 1180 0 1180 -1180 0 -1180 0 0
-1180z m1891 1055 c39 -21 87 -79 100 -124 17 -57 4 -106 -40 -150 -142 -142
-423 5 -347 182 41 97 187 143 287 92z m-471 -57 c60 -31 90 -77 90 -140 0
-43 -5 -55 -33 -83 -44 -44 -105 -60 -166 -45 -158 40 -187 207 -47 271 55 25
102 24 156 -3z m-414 -57 c32 -20 64 -74 64 -111 0 -58 -64 -110 -134 -110
-44 0 -109 31 -130 62 -36 51 -9 145 48 168 39 16 119 11 152 -9z m-373 -61
c37 -42 38 -100 1 -129 -40 -31 -113 -29 -153 5 -56 47 -36 139 34 157 42 11
90 -2 118 -33z m155 -316 c91 -30 149 -95 171 -193 l9 -41 -72 0 -71 1 -20 42
c-26 54 -70 77 -150 77 -84 0 -132 -28 -167 -99 -24 -47 -28 -67 -28 -142 0
-140 37 -211 127 -245 87 -34 185 2 222 82 l22 45 67 -3 67 -3 -3 -30 c-10
-84 -71 -162 -162 -204 -48 -22 -69 -26 -155 -26 -89 0 -106 3 -157 28 -67 33
-112 80 -146 157 -37 80 -44 248 -13 349 28 92 90 161 176 196 74 30 204 34
283 9z m765 -4 c82 -31 146 -107 162 -193 l7 -37 -76 0 c-67 0 -76 2 -76 19 0
25 -35 68 -70 86 -34 17 -126 20 -167 4 -15 -5 -43 -24 -61 -42 -83 -80 -83
-302 1 -390 82 -88 232 -69 287 35 l25 48 68 0 c77 0 78 -3 51 -82 -36 -108
-136 -176 -271 -185 -200 -14 -330 88 -364 282 -29 170 18 336 116 411 85 65
257 85 368 44z m447 -360 l0 -360 -75 0 -75 0 0 360 0 360 75 0 75 0 0 -360z
m-1532 -632 c18 -24 24 -58 10 -58 -7 0 -18 10 -23 23 -13 28 -54 35 -72 11
-16 -21 -18 -147 -3 -175 19 -35 80 -18 80 22 0 19 17 35 27 26 3 -3 0 -22 -7
-42 -23 -69 -99 -74 -127 -8 -21 51 -14 164 11 192 22 24 87 29 104 9z m192 2
c0 -5 -22 -10 -50 -10 l-50 0 0 -45 0 -45 45 0 c25 0 45 -4 45 -10 0 -5 -20
-10 -45 -10 l-45 0 0 -50 0 -50 50 0 c28 0 50 -4 50 -10 0 -6 -28 -10 -65 -10
l-65 0 0 118 c0 65 3 122 7 125 10 11 123 8 123 -3z m114 -90 c21 -55 43 -100
48 -100 5 0 6 43 2 100 -6 89 -5 100 10 100 14 0 16 -16 16 -125 0 -114 -2
-125 -18 -125 -14 0 -28 24 -57 98 -21 53 -42 101 -46 107 -5 5 -9 -37 -9 -98
0 -65 -4 -107 -10 -107 -6 0 -10 48 -10 125 0 112 2 125 18 125 12 0 27 -26
56 -100z m256 90 c0 -5 -13 -10 -30 -10 l-30 0 0 -115 c0 -96 -3 -115 -15
-115 -12 0 -15 19 -15 115 l0 115 -30 0 c-16 0 -30 5 -30 10 0 6 32 10 75 10
43 0 75 -4 75 -10z m150 -8 c27 -22 30 -67 6 -90 -13 -13 -14 -18 -2 -31 7 -9
17 -37 20 -63 6 -40 5 -48 -8 -48 -12 0 -16 10 -16 36 0 56 -15 74 -60 74
l-40 0 0 -55 c0 -30 -4 -55 -10 -55 -6 0 -10 48 -10 125 l0 125 49 0 c32 0 56
-6 71 -18z m200 9 c0 -6 -21 -11 -47 -13 l-48 -3 -3 -42 -3 -43 45 0 c25 0 46
-4 46 -10 0 -5 -20 -10 -45 -10 l-45 0 0 -50 0 -50 50 0 c28 0 50 -4 50 -10 0
-6 -27 -10 -60 -10 l-60 0 0 125 0 125 60 0 c33 0 60 -4 60 -9z m240 0 c0 -6
-19 -11 -42 -13 -43 -3 -43 -3 -46 -45 l-3 -43 40 0 c23 0 41 -4 41 -10 0 -5
-18 -10 -40 -10 l-40 0 0 -60 c0 -33 -4 -60 -10 -60 -6 0 -10 48 -10 125 l0
125 55 0 c30 0 55 -4 55 -9z m164 -14 c23 -34 30 -125 14 -172 -24 -73 -101
-87 -134 -23 -23 44 -16 168 10 197 27 30 90 29 110 -2z m191 -2 c30 -29 31
-45 6 -76 -16 -20 -17 -26 -6 -39 7 -8 16 -36 20 -62 6 -40 5 -48 -9 -48 -12
0 -16 10 -16 38 0 54 -18 74 -60 70 -35 -3 -35 -4 -38 -55 -2 -29 -7 -53 -13
-53 -5 0 -9 53 -9 125 l0 125 50 0 c41 0 56 -5 75 -25z m-1626 -401 c22 -28
28 -54 12 -54 -6 0 -16 12 -23 28 -17 35 -51 40 -72 10 -23 -32 -22 -155 1
-180 29 -32 66 -19 74 26 2 11 10 21 18 24 18 6 6 -45 -16 -70 -25 -28 -79
-23 -99 8 -20 29 -29 107 -20 159 14 73 84 101 125 49z m1268 11 c23 -16 37
-55 19 -55 -6 0 -16 10 -21 23 -6 13 -21 23 -37 25 -40 5 -58 -29 -58 -108 0
-74 18 -110 54 -110 29 0 44 17 52 58 6 30 5 32 -25 32 -17 0 -31 5 -31 10 0
6 18 10 40 10 l40 0 0 -65 c0 -37 -4 -65 -10 -65 -5 0 -10 7 -10 17 0 15 -1
15 -18 0 -25 -23 -68 -21 -91 2 -23 23 -36 96 -27 154 12 74 70 109 123 72z
m470 0 c23 -16 37 -55 19 -55 -6 0 -16 10 -21 23 -6 13 -21 23 -37 25 -40 5
-58 -29 -58 -108 0 -74 18 -110 54 -110 29 0 44 17 52 58 6 30 5 32 -25 32
-17 0 -31 5 -31 10 0 6 18 10 40 10 l40 0 0 -65 c0 -37 -4 -65 -10 -65 -5 0
-10 7 -10 17 0 15 -1 15 -18 0 -25 -23 -68 -21 -91 2 -23 23 -36 96 -27 154
12 74 70 109 123 72z m-1547 -5 c0 -5 -22 -10 -50 -10 l-50 0 0 -40 0 -40 45
0 c33 0 45 -4 45 -15 0 -11 -12 -15 -45 -15 l-45 0 0 -45 0 -45 50 0 c38 0 50
-4 50 -15 0 -12 -13 -15 -60 -15 l-60 0 0 125 0 125 60 0 c33 0 60 -4 60 -10z
m70 -99 l0 -110 45 -3 c68 -5 59 -23 -12 -26 l-63 -3 0 126 c0 104 2 125 15
125 12 0 15 -19 15 -109z m160 -1 l0 -110 50 0 c38 0 50 -4 50 -15 0 -12 -14
-15 -65 -15 l-65 0 0 125 c0 104 2 125 15 125 12 0 15 -19 15 -110z m240 -15
c0 -77 -4 -125 -10 -125 -6 0 -10 48 -10 125 0 77 4 125 10 125 6 0 10 -48 10
-125z m120 25 c13 -55 26 -100 29 -100 4 0 17 44 31 98 22 83 29 97 48 100 22
3 22 2 22 -122 0 -77 -4 -126 -10 -126 -6 0 -10 46 -10 117 0 64 -3 114 -6
110 -3 -3 -18 -54 -33 -114 -18 -69 -32 -108 -40 -108 -9 0 -23 38 -40 108
-14 60 -29 105 -33 101 -5 -4 -8 -54 -8 -111 0 -62 -4 -103 -10 -103 -6 0 -10
48 -10 125 0 124 0 125 23 125 21 0 25 -9 47 -100z m298 -17 c36 -130 36 -133
22 -133 -5 0 -14 18 -20 41 -11 39 -12 40 -53 37 -39 -3 -42 -5 -50 -41 -5
-20 -13 -37 -18 -37 -14 0 -11 16 16 120 36 133 34 130 54 130 14 0 24 -24 49
-117z m292 -8 c0 -77 -4 -125 -10 -125 -6 0 -10 48 -10 125 0 77 4 125 10 125
6 0 10 -48 10 -125z m125 33 c52 -131 59 -133 51 -10 -5 88 -4 102 9 102 13 0
15 -18 13 -122 -4 -161 -16 -163 -78 -13 l-45 110 -3 -112 c-4 -156 -22 -146
-22 12 0 116 1 125 19 125 15 0 27 -21 56 -92z"/>
<path d="M1710 2208 c-56 -29 -90 -78 -90 -130 0 -54 31 -95 94 -124 164 -77
315 48 231 192 -46 79 -148 105 -235 62z"/>
<path d="M1273 2156 c-36 -17 -73 -69 -73 -104 0 -40 28 -79 73 -101 78 -38
161 -20 203 43 23 36 11 89 -30 133 -28 31 -40 37 -87 40 -33 2 -66 -2 -86
-11z"/>
<path d="M849 2081 c-38 -38 -39 -83 -3 -116 73 -67 206 -26 190 60 -16 81
-128 115 -187 56z"/>
<path d="M1084 726 c-3 -8 -4 -29 -2 -48 3 -29 7 -33 34 -36 37 -4 64 19 64
53 0 14 -8 29 -19 35 -28 14 -71 12 -77 -4z"/>
<path d="M1692 728 c-15 -20 -25 -94 -17 -138 11 -67 47 -88 85 -50 16 16 20
33 20 84 0 88 -12 116 -49 116 -15 0 -33 -6 -39 -12z"/>
<path d="M1874 726 c-3 -8 -4 -29 -2 -48 3 -29 7 -33 34 -36 37 -4 64 19 64
53 0 14 -8 29 -19 35 -28 14 -71 12 -77 -4z"/>
<path d="M1357 260 l-15 -60 34 0 c19 0 34 4 34 9 0 23 -24 111 -30 111 -4 0
-14 -27 -23 -60z"/>
</g>
</svg>
